{
	"asset":{
		"generator":"Khronos glTF Blender I/O v4.2.69",
		"version":"2.0"
	},
	"scene":0,
	"scenes":[
		{
			"name":"Scene",
			"nodes":[
				5
			]
		}
	],
	"nodes":[
		{
			"mesh":0,
			"name":"Cube.003"
		},
		{
			"mesh":1,
			"name":"Cylinder",
			"scale":[
				0.2965186834335327,
				0.2965186834335327,
				0.2965186834335327
			],
			"translation":[
				0.019145851954817772,
				1.9806362390518188,
				-0.4911034107208252
			]
		},
		{
			"mesh":2,
			"name":"eye white"
		},
		{
			"mesh":3,
			"name":"mustache",
			"translation":[
				0,
				-0.06337493658065796,
				-0.05666732043027878
			]
		},
		{
			"mesh":4,
			"name":"Sphere.001",
			"scale":[
				0.7772689461708069,
				0.7772689461708069,
				0.7772689461708069
			],
			"translation":[
				0,
				0.12850990891456604,
				0.25545167922973633
			]
		},
		{
			"children":[
				0,
				1,
				2,
				3,
				4
			],
			"mesh":5,
			"name":"prism poupy body"
		}
	],
	"materials":[
		{
			"doubleSided":true,
			"name":"Material.001",
			"pbrMetallicRoughness":{
				"baseColorFactor":[
					0.8005450963973999,
					0.37581807374954224,
					0.03367294371128082,
					1
				],
				"metallicFactor":0,
				"roughnessFactor":0.5
			}
		},
		{
			"doubleSided":true,
			"name":"Material.002",
			"pbrMetallicRoughness":{
				"baseColorFactor":[
					0,
					0,
					0,
					1
				],
				"metallicFactor":0,
				"roughnessFactor":0.5
			}
		},
		{
			"doubleSided":true,
			"name":"Material.003",
			"pbrMetallicRoughness":{
				"baseColorFactor":[
					0.8000858426094055,
					0.017448564991354942,
					0.008692205883562565,
					1
				],
				"metallicFactor":0,
				"roughnessFactor":0.5
			}
		}
	],
	"meshes":[
		{
			"name":"Cube.005",
			"primitives":[
				{
					"attributes":{
						"POSITION":0,
						"NORMAL":1,
						"TEXCOORD_0":2
					},
					"indices":3,
					"material":0
				}
			]
		},
		{
			"name":"Cylinder",
			"primitives":[
				{
					"attributes":{
						"POSITION":4,
						"NORMAL":5,
						"TEXCOORD_0":6
					},
					"indices":7,
					"material":1
				},
				{
					"attributes":{
						"POSITION":8,
						"NORMAL":9,
						"TEXCOORD_0":10
					},
					"indices":11,
					"material":2
				}
			]
		},
		{
			"name":"Sphere",
			"primitives":[
				{
					"attributes":{
						"POSITION":12,
						"NORMAL":13,
						"TEXCOORD_0":14
					},
					"indices":15
				}
			]
		},
		{
			"name":"Cube.002",
			"primitives":[
				{
					"attributes":{
						"POSITION":16,
						"NORMAL":17,
						"TEXCOORD_0":18
					},
					"indices":19,
					"material":1
				}
			]
		},
		{
			"name":"Sphere.001",
			"primitives":[
				{
					"attributes":{
						"POSITION":20,
						"NORMAL":21,
						"TEXCOORD_0":22
					},
					"indices":15,
					"material":1
				}
			]
		},
		{
			"name":"Plane",
			"primitives":[
				{
					"attributes":{
						"POSITION":23,
						"NORMAL":24,
						"TEXCOORD_0":25
					},
					"indices":26,
					"material":0
				}
			]
		}
	],
	"accessors":[
		{
			"bufferView":0,
			"componentType":5126,
			"count":1500,
			"max":[
				1.2070947885513306,
				0.2769824266433716,
				0.6341882944107056
			],
			"min":[
				-1.2070947885513306,
				0.0514972023665905,
				-0.17203950881958008
			],
			"type":"VEC3"
		},
		{
			"bufferView":1,
			"componentType":5126,
			"count":1500,
			"type":"VEC3"
		},
		{
			"bufferView":2,
			"componentType":5126,
			"count":1500,
			"type":"VEC2"
		},
		{
			"bufferView":3,
			"componentType":5123,
			"count":7296,
			"type":"SCALAR"
		},
		{
			"bufferView":4,
			"componentType":5126,
			"count":229,
			"max":[
				1,
				1.6207587718963623,
				1
			],
			"min":[
				-1,
				-0.012018382549285889,
				-1
			],
			"type":"VEC3"
		},
		{
			"bufferView":5,
			"componentType":5126,
			"count":229,
			"type":"VEC3"
		},
		{
			"bufferView":6,
			"componentType":5126,
			"count":229,
			"type":"VEC2"
		},
		{
			"bufferView":7,
			"componentType":5123,
			"count":756,
			"type":"SCALAR"
		},
		{
			"bufferView":8,
			"componentType":5126,
			"count":66,
			"max":[
				0.809062123298645,
				0.5854986906051636,
				0.809062123298645
			],
			"min":[
				-0.809062123298645,
				0.16118687391281128,
				-0.809062123298645
			],
			"type":"VEC3"
		},
		{
			"bufferView":9,
			"componentType":5126,
			"count":66,
			"type":"VEC3"
		},
		{
			"bufferView":10,
			"componentType":5126,
			"count":66,
			"type":"VEC2"
		},
		{
			"bufferView":11,
			"componentType":5123,
			"count":192,
			"type":"SCALAR"
		},
		{
			"bufferView":12,
			"componentType":5126,
			"count":1118,
			"max":[
				0.6739466786384583,
				0.9878164529800415,
				0.4854833483695984
			],
			"min":[
				-0.6739466786384583,
				0.5079275369644165,
				-0.1539711058139801
			],
			"type":"VEC3"
		},
		{
			"bufferView":13,
			"componentType":5126,
			"count":1118,
			"type":"VEC3"
		},
		{
			"bufferView":14,
			"componentType":5126,
			"count":1118,
			"type":"VEC2"
		},
		{
			"bufferView":15,
			"componentType":5123,
			"count":5760,
			"type":"SCALAR"
		},
		{
			"bufferView":16,
			"componentType":5126,
			"count":762,
			"max":[
				1.744887113571167,
				0.4758279025554657,
				1.4405796527862549
			],
			"min":[
				-1.7663946151733398,
				0.08348928391933441,
				-1.5596266984939575
			],
			"type":"VEC3"
		},
		{
			"bufferView":17,
			"componentType":5126,
			"count":762,
			"type":"VEC3"
		},
		{
			"bufferView":18,
			"componentType":5126,
			"count":762,
			"type":"VEC2"
		},
		{
			"bufferView":19,
			"componentType":5123,
			"count":3744,
			"type":"SCALAR"
		},
		{
			"bufferView":20,
			"componentType":5126,
			"count":1118,
			"max":[
				0.9186656475067139,
				1.0965896844863892,
				0.25616055727005005
			],
			"min":[
				-0.9186656475067139,
				0.6167008280754089,
				-0.38329386711120605
			],
			"type":"VEC3"
		},
		{
			"bufferView":21,
			"componentType":5126,
			"count":1118,
			"type":"VEC3"
		},
		{
			"bufferView":22,
			"componentType":5126,
			"count":1118,
			"type":"VEC2"
		},
		{
			"bufferView":23,
			"componentType":5126,
			"count":338,
			"max":[
				1.4720304012298584,
				2.1618025302886963,
				1.1862049102783203
			],
			"min":[
				-1.4967862367630005,
				0,
				-1.3199383020401
			],
			"type":"VEC3"
		},
		{
			"bufferView":24,
			"componentType":5126,
			"count":338,
			"type":"VEC3"
		},
		{
			"bufferView":25,
			"componentType":5126,
			"count":338,
			"type":"VEC2"
		},
		{
			"bufferView":26,
			"componentType":5123,
			"count":1728,
			"type":"SCALAR"
		}
	],
	"bufferViews":[
		{
			"buffer":0,
			"byteLength":18000,
			"byteOffset":0,
			"target":34962
		},
		{
			"buffer":0,
			"byteLength":18000,
			"byteOffset":18000,
			"target":34962
		},
		{
			"buffer":0,
			"byteLength":12000,
			"byteOffset":36000,
			"target":34962
		},
		{
			"buffer":0,
			"byteLength":14592,
			"byteOffset":48000,
			"target":34963
		},
		{
			"buffer":0,
			"byteLength":2748,
			"byteOffset":62592,
			"target":34962
		},
		{
			"buffer":0,
			"byteLength":2748,
			"byteOffset":65340,
			"target":34962
		},
		{
			"buffer":0,
			"byteLength":1832,
			"byteOffset":68088,
			"target":34962
		},
		{
			"buffer":0,
			"byteLength":1512,
			"byteOffset":69920,
			"target":34963
		},
		{
			"buffer":0,
			"byteLength":792,
			"byteOffset":71432,
			"target":34962
		},
		{
			"buffer":0,
			"byteLength":792,
			"byteOffset":72224,
			"target":34962
		},
		{
			"buffer":0,
			"byteLength":528,
			"byteOffset":73016,
			"target":34962
		},
		{
			"buffer":0,
			"byteLength":384,
			"byteOffset":73544,
			"target":34963
		},
		{
			"buffer":0,
			"byteLength":13416,
			"byteOffset":73928,
			"target":34962
		},
		{
			"buffer":0,
			"byteLength":13416,
			"byteOffset":87344,
			"target":34962
		},
		{
			"buffer":0,
			"byteLength":8944,
			"byteOffset":100760,
			"target":34962
		},
		{
			"buffer":0,
			"byteLength":11520,
			"byteOffset":109704,
			"target":34963
		},
		{
			"buffer":0,
			"byteLength":9144,
			"byteOffset":121224,
			"target":34962
		},
		{
			"buffer":0,
			"byteLength":9144,
			"byteOffset":130368,
			"target":34962
		},
		{
			"buffer":0,
			"byteLength":6096,
			"byteOffset":139512,
			"target":34962
		},
		{
			"buffer":0,
			"byteLength":7488,
			"byteOffset":145608,
			"target":34963
		},
		{
			"buffer":0,
			"byteLength":13416,
			"byteOffset":153096,
			"target":34962
		},
		{
			"buffer":0,
			"byteLength":13416,
			"byteOffset":166512,
			"target":34962
		},
		{
			"buffer":0,
			"byteLength":8944,
			"byteOffset":179928,
			"target":34962
		},
		{
			"buffer":0,
			"byteLength":4056,
			"byteOffset":188872,
			"target":34962
		},
		{
			"buffer":0,
			"byteLength":4056,
			"byteOffset":192928,
			"target":34962
		},
		{
			"buffer":0,
			"byteLength":2704,
			"byteOffset":196984,
			"target":34962
		},
		{
			"buffer":0,
			"byteLength":3456,
			"byteOffset":199688,
			"target":34963
		}
	],
	"buffers":[
		{
			"byteLength":203144,
			"uri":"data:application/octet-stream;base64,"
		}
	]
}
